<?xml version="1.0" standalone="no"?>
<!DOCTYPE svg PUBLIC "-//W3C//DTD SVG 20010904//EN"
 "http://www.w3.org/TR/2001/REC-SVG-20010904/DTD/svg10.dtd">
<svg version="1.0" xmlns="http://www.w3.org/2000/svg"
 width="330.000000px" height="446.000000px" viewBox="0 0 330.000000 446.000000"
 preserveAspectRatio="xMidYMid meet">

<g class="customBackground2" transform="translate(0.000000,446.000000) scale(0.100000,-0.100000)"
fill="#000000" stroke="none">
<path d="M698 2320 c-54 -29 -75 -62 -89 -141 -14 -77 -3 -175 25 -244 l15
-34 38 16 c27 12 77 18 180 21 166 5 153 -8 153 148 0 100 0 101 -38 155 -48
70 -103 99 -187 99 -39 -1 -73 -8 -97 -20z"/>
<path d="M905 1884 c-106 -16 -181 -38 -213 -63 l-24 -18 17 -139 c33 -273 90
-555 126 -613 10 -17 35 -39 54 -48 31 -15 43 -15 93 -5 144 30 226 6 334 -97
85 -82 97 -82 224 11 55 39 117 79 139 89 55 25 119 25 145 -1 20 -20 20 -20
20 31 0 81 -27 159 -69 197 -20 18 -47 35 -61 39 -14 3 -90 37 -170 74 -80 38
-149 69 -153 69 -3 0 -31 12 -62 26 -67 32 -85 59 -120 184 -33 118 -80 213
-123 251 -37 33 -34 32 -157 13z"/>
</g>
</svg>
